<svg data-v-423bf9ae="" xmlns="http://www.w3.org/2000/svg" viewBox="0 0 421.2463250286315 60" class="font"><!----><!----><!----><g data-v-423bf9ae="" id="45bbaed0-0d86-4ee9-a2cb-1de0885ea3db" fill="white" transform="matrix(5.934718302425701,0,0,5.934718302425701,-3.3234372034179387,-1.8397626282967963)"><path d="M8.61 7.35C8.25 8.88 7.10 10.18 5.42 10.18C3.91 10.18 3.08 9.21 3.08 5.36C3.08 1.53 3.86 0.55 5.42 0.55C7.01 0.55 7.83 1.47 8.61 3.36L8.85 3.36L9.04 1.16C8.16 0.45 6.86 0.31 5.42 0.31C2.42 0.31 0.56 2.58 0.56 5.36C0.56 8.15 2.42 10.42 5.42 10.42C6.92 10.42 8.01 10.23 9.04 9.55L8.85 7.35ZM13.52 3.70C11.40 3.70 10.19 5.21 10.19 7.06C10.19 8.89 11.40 10.42 13.52 10.42C15.67 10.42 16.86 8.89 16.86 7.06C16.86 5.21 15.67 3.70 13.52 3.70ZM13.52 10.18C12.52 10.18 12.25 9.59 12.25 7.06C12.25 4.52 12.52 3.93 13.52 3.93C14.53 3.93 14.78 4.52 14.78 7.06C14.78 9.59 14.53 10.18 13.52 10.18ZM24.07 8.58L24.07 5.82C24.07 4.13 23.39 3.70 22.30 3.70C21.42 3.70 20.31 4.34 19.99 5.19L19.99 3.70L17.54 4.26L17.54 4.49C18.12 4.80 18.24 4.96 18.24 5.45L18.24 8.61C18.24 9.32 18.23 9.90 17.70 10.05L17.70 10.29L20.57 10.29L20.57 10.05C20.08 9.91 19.99 9.38 19.99 8.61L19.99 5.85C19.99 5.29 20.64 4.70 21.18 4.70C21.88 4.70 22.32 5.19 22.32 5.87L22.32 8.58C22.32 9.30 22.29 9.90 21.76 10.05L21.76 10.29L24.64 10.29L24.64 10.05C24.14 9.93 24.07 9.35 24.07 8.58ZM28.71 9.42C28.01 9.42 27.68 9.02 27.68 8.23L27.68 4.06L29.29 4.06L29.34 3.82L27.68 3.82L27.68 1.65L25.93 1.95L25.93 3.82L25.19 3.82L25.23 4.06L25.93 4.06L25.93 8.27C25.93 9.97 26.59 10.42 27.69 10.42C28.63 10.42 29.48 9.72 29.76 9.06L29.55 8.93C29.43 9.14 29.12 9.42 28.71 9.42ZM34.10 8.85C33.98 9.18 33.66 9.56 33.18 9.56C32.27 9.56 32.27 8.64 32.27 8.64C32.27 7.92 32.73 7.27 34.10 6.96C34.10 6.96 34.10 8.82 34.10 8.85ZM36.54 9.56C35.85 9.56 35.87 8.58 35.87 8.58L35.87 6.50C35.87 4.84 35.36 3.70 33.53 3.70C33.53 3.70 32.80 3.64 32.17 3.98C31.40 4.38 31.22 4.76 31.08 5.00C30.94 5.24 30.95 5.57 31.12 5.84C31.37 6.20 31.86 6.29 32.23 6.05C32.59 5.80 32.69 5.31 32.44 4.94C32.31 4.76 32.13 4.66 31.92 4.63C31.82 4.62 31.88 4.38 32.33 4.16C33.29 3.65 34.10 4.38 34.10 5.84L34.10 6.71C31.65 7.32 30.48 7.46 30.48 8.99C30.48 10.42 32.09 10.42 32.09 10.42C33.08 10.42 33.91 9.90 34.12 9.28C34.27 10.42 35.52 10.42 35.52 10.42C36.40 10.42 37.04 9.87 37.16 9.42L36.92 9.32C36.83 9.56 36.54 9.56 36.54 9.56ZM43.58 8.48C43.26 8.95 42.15 9.32 41.45 9.17C40.49 8.96 39.68 8.29 39.68 6.78C39.68 4.37 41.03 3.93 41.54 3.93C42.10 3.93 42.41 4.17 42.28 4.23C42.07 4.34 41.90 4.52 41.85 4.79C41.71 5.28 42 5.80 42.50 5.92C43.01 6.06 43.51 5.74 43.65 5.25C43.75 4.91 43.61 4.52 43.37 4.31C43.13 4.10 42.53 3.70 41.54 3.70C39.14 3.70 37.91 5.42 37.91 7.03C37.91 8.67 39.16 10.42 40.99 10.42C42.74 10.42 43.58 9.32 43.78 8.61ZM48.05 9.42C47.35 9.42 47.01 9.02 47.01 8.23L47.01 4.06L48.62 4.06L48.68 3.82L47.01 3.82L47.01 1.65L45.26 1.95L45.26 3.82L44.52 3.82L44.56 4.06L45.26 4.06L45.26 8.27C45.26 9.97 45.92 10.42 47.03 10.42C47.96 10.42 48.82 9.72 49.10 9.06L48.89 8.93C48.76 9.14 48.45 9.42 48.05 9.42ZM53.13 6.09C55.92 6.09 57.89 5.60 57.89 3.26C57.89 0.92 55.92 0.43 53.13 0.43L49.59 0.43L49.59 0.67C50.20 0.67 50.60 1.41 50.60 2.28L50.60 8.37C50.60 9.32 50.26 10.05 49.67 10.05L49.67 10.29L54.28 10.29L54.28 10.05C53.68 10.05 52.63 9.95 52.63 8.37L52.63 6.09ZM52.63 0.67L53.13 0.67C54.50 0.67 55.59 0.77 55.59 3.26C55.59 5.74 54.50 5.85 53.13 5.85L52.63 5.85ZM62.66 3.77C62.33 3.91 61.75 4.12 61.01 5.28L61.01 3.70L58.55 4.26L58.55 4.49C59.12 4.79 59.25 5.00 59.25 5.47L59.25 8.58C59.25 9.31 59.23 9.88 58.69 10.05L58.69 10.29L61.59 10.29L61.59 10.05C61.08 9.91 61.01 9.37 61.01 8.58L61.01 5.67C61.53 4.83 62.10 4.69 62.10 4.84C62.10 5.10 62.22 5.33 62.43 5.53C62.87 5.91 63.52 5.85 63.90 5.42C64.27 5.00 64.23 4.33 63.80 3.95C63.49 3.70 62.96 3.64 62.66 3.77ZM68.21 3.70C66.08 3.70 64.88 5.21 64.88 7.06C64.88 8.89 66.08 10.42 68.21 10.42C70.35 10.42 71.54 8.89 71.54 7.06C71.54 5.21 70.35 3.70 68.21 3.70ZM68.21 10.18C67.20 10.18 66.93 9.59 66.93 7.06C66.93 4.52 67.20 3.93 68.21 3.93C69.22 3.93 69.47 4.52 69.47 7.06C69.47 9.59 69.22 10.18 68.21 10.18Z"></path></g><!----><!----></svg>